<svg width="17" height="17" viewBox="0 0 17 17" fill="none" xmlns="http://www.w3.org/2000/svg">
<path d="M6.37431 7.08333C5.0051 7.08333 3.89514 5.97338 3.89514 4.60417C3.89514 3.23496 5.0051 2.125 6.37431 2.125C7.74352 2.125 8.85348 3.23496 8.85348 4.60417C8.85348 5.97338 7.74352 7.08333 6.37431 7.08333Z" stroke="#5C5C5C" stroke-linecap="round" stroke-linejoin="round"/>
<path d="M10.6246 2.125C11.9938 2.125 13.1038 3.23496 13.1038 4.60417C13.1038 5.97338 11.9938 7.08333 10.6246 7.08333" stroke="#5C5C5C" stroke-linecap="round" stroke-linejoin="round"/>
<path d="M6.37523 9.20807C4.07849 9.20807 2.10089 10.4037 1.21096 12.1224C0.671324 13.1645 1.65995 14.1664 2.83356 14.1664H9.91692C11.0905 14.1664 12.0791 13.1645 11.5395 12.1224C10.6495 10.4037 8.67195 9.20807 6.37523 9.20807Z" stroke="#5C5C5C" stroke-linecap="round" stroke-linejoin="round"/>
<path d="M12.7496 9.56915C14.2215 10.0905 15.3861 11.1372 15.9395 12.4435C16.3211 13.344 15.4985 14.1671 14.5205 14.1671" stroke="#5C5C5C" stroke-linecap="round" stroke-linejoin="round"/>
</svg>
