<svg width="20" height="20" viewBox="0 0 20 20" fill="none" xmlns="http://www.w3.org/2000/svg">
<path d="M7.51453 3.99997L9.46979 2.04472C9.61043 1.90412 9.80116 1.82513 10 1.82513C10.1989 1.82513 10.3896 1.90412 10.5303 2.04472L12.4855 3.99997H15.25C15.4489 3.99997 15.6397 4.07899 15.7804 4.21964C15.921 4.3603 16 4.55106 16 4.74997V7.51447L17.9553 9.46972C18.0959 9.61037 18.1749 9.8011 18.1749 9.99997C18.1749 10.1988 18.0959 10.3896 17.9553 10.5302L16 12.4855V15.25C16 15.4489 15.921 15.6397 15.7804 15.7803C15.6397 15.921 15.4489 16 15.25 16H12.4855L10.5303 17.9552C10.3896 18.0958 10.1989 18.1748 10 18.1748C9.80116 18.1748 9.61043 18.0958 9.46979 17.9552L7.51453 16H4.75004C4.55112 16 4.36036 15.921 4.21971 15.7803C4.07905 15.6397 4.00004 15.4489 4.00004 15.25V12.4855L2.04479 10.5302C1.90418 10.3896 1.8252 10.1988 1.8252 9.99997C1.8252 9.8011 1.90418 9.61037 2.04479 9.46972L4.00004 7.51447V4.74997C4.00004 4.55106 4.07905 4.3603 4.21971 4.21964C4.36036 4.07899 4.55112 3.99997 4.75004 3.99997H7.51453ZM5.50003 5.49997V8.13622L3.63629 9.99997L5.50003 11.8637V14.5H8.13629L10 16.3637L11.8638 14.5H14.5V11.8637L16.3638 9.99997L14.5 8.13622V5.49997H11.8638L10 3.63622L8.13629 5.49997H5.50003ZM10 13C9.20438 13 8.44132 12.6839 7.87871 12.1213C7.31611 11.5587 7.00003 10.7956 7.00003 9.99997C7.00003 9.20432 7.31611 8.44126 7.87871 7.87865C8.44132 7.31604 9.20438 6.99997 10 6.99997C10.7957 6.99997 11.5587 7.31604 12.1214 7.87865C12.684 8.44126 13 9.20432 13 9.99997C13 10.7956 12.684 11.5587 12.1214 12.1213C11.5587 12.6839 10.7957 13 10 13ZM10 11.5C10.3979 11.5 10.7794 11.3419 11.0607 11.0606C11.342 10.7793 11.5 10.3978 11.5 9.99997C11.5 9.60215 11.342 9.22062 11.0607 8.93931C10.7794 8.65801 10.3979 8.49997 10 8.49997C9.60221 8.49997 9.22068 8.65801 8.93937 8.93931C8.65807 9.22062 8.50003 9.60215 8.50003 9.99997C8.50003 10.3978 8.65807 10.7793 8.93937 11.0606C9.22068 11.3419 9.60221 11.5 10 11.5Z" fill="#5C5C5C"/>
</svg>
