<svg width="20" height="20" viewBox="0 0 20 20" fill="none" xmlns="http://www.w3.org/2000/svg">
<path d="M11.6666 5.83334H3.33331M11.6666 5.83334C11.6666 4.45209 12.7854 3.33334 14.1666 3.33334C15.5479 3.33334 16.6666 4.45209 16.6666 5.83334C16.6666 7.21459 15.5479 8.33334 14.1666 8.33334C12.7854 8.33334 11.6666 7.21459 11.6666 5.83334ZM16.6666 14.1667H9.99998M9.99998 14.1667C9.99998 15.5479 8.88123 16.6667 7.49998 16.6667C6.11873 16.6667 4.99998 15.5479 4.99998 14.1667M9.99998 14.1667C9.99998 12.7854 8.88123 11.6667 7.49998 11.6667C6.11873 11.6667 4.99998 12.7854 4.99998 14.1667M4.99998 14.1667H3.33331" stroke="black" stroke-width="1.66667" stroke-linecap="round" stroke-linejoin="round"/>
</svg>
